<?xml version="1.0" encoding="utf-8"?>
<!-- Generator: Adobe Illustrator 25.2.1, SVG Export Plug-In . SVG Version: 6.00 Build 0)  -->
<svg version="1.1" id="Capa_1" xmlns="http://www.w3.org/2000/svg" xmlns:xlink="http://www.w3.org/1999/xlink" x="0px" y="0px"
	 viewBox="0 0 1000 1000" style="enable-background:new 0 0 1000 1000;" xml:space="preserve">
<style type="text/css">
	.st0{fill:#FFFFFF;}
</style>
<g>
	<path class="st0" d="M595.45,120.86c28.68,0.36,54.77,6.8,80.92,12.17c47.02,9.66,93.29,10.49,139.16-6.29
		c18.98-6.95,38.7-11.9,58.08-17.75c4.65-1.4,9.29-2.16,14.62,0.44c-6.91,15.37-16.62,29-23,44.44
		c-21.75,52.64-23.43,106.04-1.75,158.19c15.53,37.35,36.34,72.51,55,108.54c22.88,44.2,38.56,90.91,44.99,140.13
		c12.1,92.57-9.38,176.37-68.22,250.04c-31.22,39.09-68.11,71.18-112.3,94.43c-42.46,22.35-88.21,34.91-135.39,42.67
		c-25.73,4.23-51.58,5.82-77.65,5.36c-50.65-0.9-99.64-11.19-147.12-27.78c-43.34-15.14-85.3-33.81-124.02-58.95
		c-15.13-9.83-28.89-21.9-45.51-29.25c-22.3-9.86-44.6-10.73-65.19,4.34c-31.94,23.38-62.8,48.22-95.66,70.36
		c-8.6,5.79-16.41,12.92-29.94,14.74c19.45-29.26,37.59-56.6,55.78-83.92c10.73-16.12,21.68-32.1,32.24-48.33
		c15.35-23.59,15.22-44.69-1.98-67.3c-29.5-38.79-54.15-80.38-75.04-124.33C52.15,557.97,38,511.07,30.52,461.95
		c-4.4-28.9-6.66-57.92-4.85-86.94c4.6-73.51,27.86-140.18,75.15-197.74C160.36,104.8,238.79,67,329.59,51.96
		c36.07-5.97,72.02-4.11,107.33,5.69c9.45,2.62,17.81,7.52,24.3,18.83c-14.36,0-27.32-0.7-40.18,0.14
		c-32.58,2.13-64.42,7.34-94.74,20.79c-45.26,20.08-70.33,57.13-87.96,100.88c-16.47,40.88-21.16,83.84-18.02,127.19
		c5.69,78.6,30.87,150.18,80.37,212.75c54.05,68.31,122.26,116.24,204.12,144.83c55.6,19.42,113.37,26.91,171.84,21.98
		c55.97-4.72,106.45-25.23,150.73-60.98c47.8-38.6,65.83-89,61.35-148.41c-2.97-39.42-13.79-76.42-44.63-104.06
		c-21.28-19.08-46.39-29.07-75.29-31.05c-58.72-4.03-109.71,15.48-157.65,47.4c-40.7,27.1-79.58,56.64-119.01,85.45
		c-4.92,3.6-9.88,7.08-15.94,9.11c-4.87,1.63-7.89,0.37-10.09-3.32c-2.48-4.15,2.24-4.54,3.98-6.68
		c12.75-15.67,25.04-31.7,37.82-47.34c24.76-30.31,50.48-59.87,74.41-90.83c18.59-24.04,35.66-49.56,45.67-78.56
		c17.49-50.69,12.12-98.08-23.74-139.98C600.85,131.79,597.73,127.73,595.45,120.86z"/>
</g>
</svg>
